<svg width="42" height="42" viewBox="0 0 42 42" fill="none" xmlns="http://www.w3.org/2000/svg">
<path d="M39.4494 21C40.8581 21 42.016 19.8539 41.8454 18.4556C41.3054 14.031 39.367 9.86816 36.2787 6.59306C32.6041 2.6961 27.5794 0.350521 22.2324 0.0361923C16.8854 -0.278136 11.6204 1.46255 7.51452 4.90212C3.40863 8.34169 0.772218 13.2202 0.144645 18.5395C-0.482929 23.8588 0.945776 29.2169 4.13847 33.5175C7.33116 37.8182 12.0465 40.7364 17.3198 41.675C22.5931 42.6137 28.0258 41.5019 32.5064 38.5671C36.2721 36.1006 39.126 32.5032 40.6809 28.3257C41.1722 27.0055 40.3128 25.6214 38.9429 25.2936C37.5729 24.9657 36.2152 25.8225 35.6728 27.1225C34.4556 30.0395 32.3876 32.5469 29.7114 34.2998C26.3192 36.5217 22.2062 37.3634 18.2138 36.6528C14.2214 35.9422 10.6515 33.7328 8.23434 30.4769C5.81719 27.2209 4.73554 23.1644 5.21067 19.1372C5.68579 15.11 7.68179 11.4165 10.7903 8.81249C13.8988 6.20843 17.8849 4.89058 21.933 5.12856C25.9812 5.36653 29.7854 7.14234 32.5673 10.0927C34.7621 12.4203 36.1898 15.3401 36.6947 18.4602C36.9198 19.8508 38.0408 21 39.4494 21Z" fill="#8A73FF"/>
<circle cx="20.9999" cy="21.0001" r="7.94595" fill="#32FF9D"/>
</svg>
