<svg width="99" height="211" viewBox="0 0 99 211" fill="none" xmlns="http://www.w3.org/2000/svg">
<path d="M57.5608 21.4336C55.2921 17.4874 50.2317 16.1013 46.4756 18.6726C27.3899 31.738 13.0868 50.8006 5.92113 72.9538C-2.09302 97.7303 -0.606394 124.602 10.0919 148.343C20.7902 172.084 39.9356 190.998 63.8051 201.407C87.6746 211.816 114.562 212.976 139.239 204.662C163.917 196.347 184.62 179.152 197.323 156.42C210.026 133.689 213.822 107.045 207.971 81.6705C202.12 56.2959 187.042 34.0039 165.668 19.1294C146.557 5.82968 123.634 -0.690161 100.533 0.458578C95.9872 0.684643 92.7974 4.85047 93.3795 9.365C93.9616 13.8795 98.0961 17.0268 102.645 16.8673C121.677 16.2002 140.501 21.6976 156.252 32.6594C174.268 45.1969 186.977 63.9863 191.908 85.374C196.84 106.762 193.641 129.219 182.934 148.379C172.226 167.539 154.776 182.032 133.976 189.041C113.176 196.049 90.5132 195.071 70.3941 186.298C50.275 177.524 34.1378 161.582 25.1204 141.571C16.1031 121.56 14.85 98.9105 21.605 78.0269C27.511 59.768 39.1695 43.9999 54.7246 33.0135C58.4426 30.3875 59.8294 25.3799 57.5608 21.4336Z" fill="#E9F3FF"/>
</svg>
