<svg width="221" height="243" viewBox="0 0 221 243" fill="none" xmlns="http://www.w3.org/2000/svg">
<path d="M210.443 127.941C215.671 128.251 220.2 124.26 220.1 119.024C219.591 92.4167 210.293 66.6207 193.515 45.7365C174.75 22.3793 147.969 6.83557 118.379 2.12787C88.7899 -2.57983 58.5073 3.88497 33.4199 20.2652C8.33243 36.6453 -9.76663 61.7701 -17.3579 90.754C-24.9492 119.738 -21.4901 150.509 -7.65331 177.084C6.18351 203.659 29.4091 224.138 57.5071 234.54C85.6051 244.941 116.567 244.521 144.373 233.362C169.234 223.384 189.984 205.457 203.471 182.516C206.125 178.001 204.134 172.302 199.424 170.01V170.01C194.715 167.718 189.077 169.706 186.357 174.182C174.977 192.906 157.8 207.536 137.309 215.76C113.872 225.167 87.7746 225.521 64.0914 216.753C40.4081 207.986 20.8318 190.725 9.16904 168.325C-2.49372 145.926 -5.4093 119.989 0.989233 95.5593C7.38777 71.1295 22.6431 49.9523 43.7887 36.1458C64.9344 22.3393 90.459 16.8903 115.399 20.8583C140.339 24.8263 162.913 37.9278 178.729 57.6151C192.558 74.8281 200.358 95.9998 201.098 117.899C201.275 123.133 205.215 127.63 210.443 127.941V127.941Z" fill="#E9F3FF"/>
</svg>
