<svg width="76" height="222" viewBox="0 0 76 222" fill="none" xmlns="http://www.w3.org/2000/svg">
<path d="M65.7444 123.465C70.5051 124.069 74.8899 120.697 75.1184 115.904C76.2793 91.5471 69.356 67.3952 55.2935 47.2765C39.5657 24.7755 16.0319 8.92776 -10.7317 2.81494C-37.4953 -3.29787 -65.5759 0.761157 -89.5129 14.2027C-113.45 27.6443 -131.533 49.5077 -140.245 75.5415C-148.957 101.575 -147.675 129.919 -136.65 155.06C-125.625 180.202 -105.643 200.345 -80.591 211.572C-55.5388 222.799 -27.2066 224.308 -1.10362 215.805C22.2356 208.203 42.3011 193.082 56.0338 172.933C58.7364 168.968 57.2642 163.636 53.0989 161.253V161.253C48.9337 158.869 43.6575 160.342 40.8971 164.268C29.3485 180.69 12.7506 193.015 -6.4859 199.281C-28.4875 206.448 -52.3681 205.176 -73.4841 195.713C-94.6 186.25 -111.442 169.272 -120.735 148.081C-130.028 126.89 -131.108 103 -123.765 81.0564C-116.422 59.113 -101.18 40.6848 -81.0042 29.3552C-60.8282 18.0256 -37.1597 14.6043 -14.6012 19.7567C7.95729 24.909 27.7934 38.2668 41.05 57.2324C52.6405 73.8144 58.4771 93.6471 57.815 113.713C57.6567 118.509 60.9837 122.861 65.7444 123.465V123.465Z" fill="#E9F3FF"/>
</svg>
