<svg width="65" height="177" viewBox="0 0 65 177" fill="none" xmlns="http://www.w3.org/2000/svg">
<path d="M-82.2477 144.527C-85.0169 147.163 -85.1422 151.567 -82.2978 154.121C-67.8444 167.098 -49.448 174.98 -29.9483 176.425C-8.13941 178.04 13.4909 171.487 30.7365 158.04C47.9821 144.593 59.6105 125.213 63.3604 103.668C67.1103 82.1237 62.7137 59.9544 51.0256 41.4713C39.3375 22.9883 21.1932 9.51258 0.12103 3.66463C-20.9512 -2.18333 -43.4451 0.0144431 -62.9868 9.83059C-82.5286 19.6467 -97.7213 36.3796 -105.611 56.7755C-112.665 75.0119 -113.43 95.0113 -107.902 113.632C-106.814 117.297 -102.781 119.072 -99.2129 117.7V117.7C-95.645 116.327 -93.8985 112.329 -94.9326 108.648C-99.2591 93.2518 -98.514 76.8003 -92.6999 61.7696C-86.05 44.5784 -73.2444 30.4746 -56.7731 22.2008C-40.3018 13.9269 -21.3421 12.0745 -3.58081 17.0036C14.1805 21.9327 29.4739 33.2911 39.3256 48.8701C49.1772 64.4491 52.883 83.1351 49.7223 101.295C46.5616 119.454 36.7603 135.789 22.2243 147.124C7.68834 158.458 -10.5434 163.981 -28.9256 162.619C-44.9975 161.429 -60.1801 155.049 -72.2356 144.54C-75.1171 142.029 -79.4786 141.892 -82.2477 144.527V144.527Z" fill="#E9F3FF"/>
</svg>
