<svg width="97" height="152" viewBox="0 0 97 152" fill="none" xmlns="http://www.w3.org/2000/svg">
<path d="M-2.16227 141.931C-3.23625 145.028 -1.5995 148.434 1.57281 149.262C17.6921 153.467 34.813 152.24 50.2428 145.671C67.4997 138.325 81.4078 124.823 89.2627 107.792C97.1175 90.7605 98.3577 71.4166 92.742 53.5216C87.1263 35.6265 75.0561 20.4595 58.8786 10.9698C42.7011 1.48004 23.5725 -1.65414 5.21238 2.1767C-13.1477 6.00753 -29.4269 16.5296 -40.4598 31.6968C-51.4927 46.864 -56.4906 65.5922 -54.4816 84.2398C-52.6854 100.913 -45.4023 116.456 -33.8656 128.474C-31.5952 130.839 -27.8234 130.605 -25.6438 128.156V128.156C-23.4641 125.707 -23.7059 121.973 -25.9415 119.575C-35.2944 109.542 -41.197 96.7104 -42.6775 82.9681C-44.3707 67.2505 -40.1581 51.4648 -30.8588 38.6807C-21.5594 25.8966 -7.83797 17.0278 7.63735 13.7989C23.1127 10.5699 39.2358 13.2117 52.8715 21.2104C66.5072 29.2091 76.6808 41.993 81.4142 57.0764C86.1475 72.1597 85.1022 88.4643 78.4816 102.82C71.8609 117.175 60.138 128.555 45.5926 134.747C32.8752 140.161 18.7948 141.271 5.47358 138.003C2.2895 137.222 -1.08829 138.833 -2.16227 141.931V141.931Z" fill="#E9F3FF"/>
</svg>
