<svg width="153" height="460" viewBox="0 0 153 460" fill="none" xmlns="http://www.w3.org/2000/svg">
<path d="M224.744 348.465C229.505 349.069 233.89 345.697 234.118 340.904C235.279 316.547 228.356 292.395 214.293 272.277C198.566 249.775 175.032 233.928 148.268 227.815C121.505 221.702 93.4242 225.761 69.4871 239.203C45.5501 252.644 27.4674 274.508 18.7553 300.542C10.0433 326.575 11.3245 354.919 22.3499 380.06C33.3753 405.202 53.3569 425.345 78.409 436.572C103.461 447.799 131.793 449.308 157.896 440.805C181.236 433.203 201.301 418.082 215.034 397.933C217.736 393.968 216.264 388.636 212.099 386.253C207.934 383.869 202.657 385.342 199.897 389.268C188.349 405.69 171.751 418.015 152.514 424.281C130.512 431.448 106.632 430.176 85.5159 420.713C64.4 411.25 47.558 394.272 38.2649 373.081C28.9718 351.89 27.8919 328 35.2351 306.056C42.5783 284.113 57.8198 265.685 77.9958 254.355C98.1718 243.026 121.84 239.604 144.399 244.757C166.957 249.909 186.793 263.267 200.05 282.232C211.641 298.814 217.477 318.647 216.815 338.713C216.657 343.509 219.984 347.861 224.744 348.465Z" fill="#E9F3FF"/>
<path d="M76.7523 180.527C73.9831 183.163 73.8578 187.567 76.7022 190.121C91.1556 203.098 109.552 210.98 129.052 212.425C150.861 214.04 172.491 207.487 189.736 194.04C206.982 180.593 218.61 161.213 222.36 139.668C226.11 118.124 221.714 95.9544 210.026 77.4713C198.337 58.9883 180.193 45.5126 159.121 39.6646C138.049 33.8167 115.555 36.0144 96.0131 45.8306C76.4714 55.6467 61.2787 72.3796 53.3893 92.7755C46.3351 111.012 45.5704 131.011 51.0983 149.632C52.1862 153.297 56.2191 155.072 59.7871 153.7C63.355 152.327 65.1015 148.329 64.0674 144.648C59.7409 129.252 60.486 112.8 66.3001 97.7696C72.95 80.5784 85.7556 66.4746 102.227 58.2008C118.698 49.9269 137.658 48.0745 155.419 53.0036C173.18 57.9327 188.474 69.2911 198.326 84.8701C208.177 100.449 211.883 119.135 208.722 137.295C205.562 155.454 195.76 171.789 181.224 183.124C166.688 194.458 148.457 199.981 130.074 198.619C114.002 197.429 98.8199 191.049 86.7644 180.54C83.8829 178.029 79.5214 177.892 76.7523 180.527Z" fill="#E9F3FF"/>
</svg>
