<svg width="93" height="94" viewBox="0 0 93 94" fill="none" xmlns="http://www.w3.org/2000/svg">
<g clip-path="url(#clip0_302_111)">
<path d="M52.9509 73.6783C50.9168 71.3169 46.508 70.1825 43.6996 71.9204C39.4614 73.5473 38.4823 78.9863 40.3316 82.7191C42.7504 87.6027 49.0007 86.432 52.4996 83.6146C55.7112 81.0232 55.4637 76.5915 52.9509 73.6783ZM43.2903 81.489C41.6886 79.2205 42.6125 76.9298 44.1036 75.092C46.2718 74.5096 47.8646 73.8144 50.0028 75.2662C50.8345 75.8185 51.415 76.6763 51.6187 77.6537C51.8224 78.631 51.6328 79.6493 51.091 80.4879C49.575 82.8577 45.1032 84.0474 43.2865 81.4957L43.2903 81.489Z" fill="#2D2D2D"/>
<path d="M32.6326 53.3966C43.3819 47.715 58.0475 49.0558 66.1828 58.4334C66.6384 59.1959 67.6517 59.5861 68.3748 58.7292C70.3292 56.4109 72.286 54.0961 74.2626 51.7974C74.303 51.7503 74.3405 51.7009 74.3749 51.6494C74.5865 51.444 74.716 51.1687 74.7394 50.8747C74.7628 50.5808 74.6785 50.2884 74.5021 50.0521C65.1668 36.62 40.5177 32.4155 27.0633 42.2821C26.4558 42.5159 26.0394 43.0974 26.3585 43.8908C27.549 46.9387 28.7201 49.9932 29.8716 53.0544C30.3626 54.3726 32.0896 54.279 32.6326 53.3966ZM46.5101 40.4775C56.4822 40.2732 64.3177 44.208 71.2703 50.8513C70.0239 52.2937 68.783 53.7422 67.5475 55.1968C61.2005 45.6311 41.0727 44.0302 31.9811 50.4404C31.1795 48.3427 30.3671 46.2484 29.5437 44.1576C34.7684 41.5124 40.6853 40.5972 46.5081 40.4809L46.5101 40.4775Z" fill="#2D2D2D"/>
<path d="M65.2611 62.6899C59.9913 53.0854 42.1239 51.8713 33.605 57.1498C32.819 57.2738 32.1557 57.93 32.5111 58.8854C33.4903 61.5261 34.4613 64.1695 35.424 66.8156C35.89 68.0992 37.5184 68.0562 38.1244 67.2549C44.6994 64.3076 52.6966 65.6774 57.6213 70.9417C57.9877 71.8587 59.1404 72.4301 59.926 71.4728C61.7439 69.2525 63.5681 67.0382 65.3986 64.8297C65.6554 64.5239 65.7845 64.1308 65.7589 63.7322C65.7333 63.3336 65.555 62.9603 65.2611 62.6899V62.6899ZM37.6906 64.5073C37.0286 62.7007 36.3617 60.8973 35.69 59.0971C43.6992 55.419 56.7595 56.6505 62.6138 63.625C61.3712 65.1203 60.1328 66.6188 58.8986 68.1204C54.2475 62.293 44.2296 61.4362 37.6906 64.5073V64.5073Z" fill="#2D2D2D"/>
<path d="M75.7385 47.1537C75.8785 47.381 76.0759 47.5675 76.3108 47.6945C76.5457 47.8214 76.8098 47.8844 77.0767 47.877C77.3096 47.8969 77.543 47.8438 77.7445 47.7251C77.9449 47.6404 78.1258 47.5153 78.2758 47.3576C78.4258 47.1999 78.5417 47.013 78.6163 46.8085C80.5131 44.5666 82.4813 42.3795 84.4656 40.215C84.6626 40.0616 84.8115 39.855 84.8946 39.6195C84.9778 39.3841 84.9916 39.1298 84.9346 38.8867C82.0213 26.7794 68.5702 20.131 57.422 17.8803C45.1337 15.397 29.1413 17.6461 20.6476 27.761C20.5129 27.9093 20.4142 28.0866 20.3589 28.2791C20.3037 28.4717 20.2934 28.6743 20.3289 28.8715C20.3434 29.0142 20.3799 29.1539 20.437 29.2855C21.6675 32.1504 22.8864 35.0355 23.9709 37.9594C24.4435 39.2356 25.7848 39.1971 26.4349 38.4862C43.3003 29.0772 64.3003 29.7998 75.7385 47.1537ZM82.0863 39.0294C80.486 40.6608 78.9235 42.3275 77.3576 43.9923C66.0698 28.0421 42.1292 24.1504 25.9989 35.4865C25.0347 33.324 24.0847 31.1563 23.0821 29.0098C40.9963 14.6073 71.2509 17.4817 82.0882 39.0261L82.0863 39.0294Z" fill="#2D2D2D"/>
<path d="M85.5566 44.6252C83.3655 46.733 81.6606 49.5268 79.7637 51.9008C77.3426 54.9306 74.8685 57.9164 72.391 60.9002C67.915 66.2867 63.1566 71.5415 59.1462 77.2931C59.0902 77.3705 59.2132 77.4639 59.2756 77.3947C64.0037 72.2388 68.3782 66.749 72.8235 61.3381C75.2878 58.3421 77.7365 55.3305 80.1478 52.2905C82.0129 49.9407 84.4109 47.4552 85.6736 44.7174C85.682 44.7017 85.6846 44.6836 85.6809 44.6662C85.6773 44.6488 85.6677 44.6333 85.6537 44.6223C85.6398 44.6113 85.6224 44.6055 85.6046 44.6061C85.5869 44.6066 85.5699 44.6134 85.5566 44.6252V44.6252Z" fill="#2D2D2D"/>
<path d="M87.7569 41.7525C87.7702 41.6751 87.6855 41.5813 87.6005 41.6353C87.0057 42.0636 86.535 42.6419 86.2365 43.3113C86.1818 43.441 86.3411 43.5957 86.4482 43.4761C86.9158 42.9533 87.6196 42.4907 87.7569 41.7525Z" fill="#2D2D2D"/>
<path d="M24.6158 47.4784C24.5837 47.3904 24.4445 47.4221 24.4727 47.5167C27.3401 56.7263 31.0861 65.6389 35.6592 74.1315C35.7021 74.2123 35.815 74.1409 35.7808 74.0606C31.9209 65.288 28.0397 56.436 24.6158 47.4784Z" fill="#2D2D2D"/>
<path d="M39.9834 14.0312C47.0006 12.7076 53.9509 14.277 60.7894 15.7997C60.8098 15.802 60.8303 15.7969 60.8473 15.7853C60.8642 15.7737 60.8764 15.7564 60.8816 15.7365C60.8868 15.7167 60.8846 15.6956 60.8756 15.6772C60.8665 15.6588 60.8511 15.6443 60.8322 15.6363C54.1111 13.0996 46.9145 12.201 39.807 13.3515C33.8521 14.321 25.2404 17.0644 21.9667 22.5717C21.9587 22.5874 21.9565 22.6054 21.9604 22.6226C21.9644 22.6398 21.9742 22.6551 21.9881 22.6658C22.0021 22.6766 22.0194 22.6821 22.0371 22.6814C22.0547 22.6807 22.0715 22.6739 22.0846 22.6622C27.1685 17.9917 33.2034 15.3126 39.9834 14.0312Z" fill="#2D2D2D"/>
<path d="M61.8879 16.2436C62.4961 16.6678 63.2145 16.906 63.9557 16.9291C63.9737 16.9283 63.991 16.9218 64.0051 16.9106C64.0192 16.8993 64.0293 16.8839 64.0341 16.8666C64.0389 16.8492 64.0381 16.8308 64.0318 16.8139C64.0255 16.797 64.014 16.7826 63.999 16.7727C63.4132 16.3404 62.6465 16.012 61.9079 16.1275C61.8398 16.133 61.8445 16.2141 61.8879 16.2436Z" fill="#2D2D2D"/>
</g>
<defs>
<clipPath id="clip0_302_111">
<rect width="66.6503" height="69.996" fill="white" transform="translate(34.998) rotate(30)"/>
</clipPath>
</defs>
</svg>
