<svg width="120" height="139" viewBox="0 0 120 139" fill="none" xmlns="http://www.w3.org/2000/svg">
<g clip-path="url(#clip0_302_101)">
<path d="M116.066 11.0219C107.851 7.7875 98.1466 7.2845 89.4442 6.13774C77.7371 4.59483 65.895 3.40636 54.0789 3.6696C54.0062 3.6696 53.9387 3.6696 53.8737 3.68523C53.5321 3.66151 53.195 3.7742 52.9358 3.99874C52.6765 4.22327 52.5161 4.5415 52.4896 4.88412C52.3043 6.08301 52.1173 7.28189 51.9286 8.48077L50.8898 8.46513C50.212 8.46513 49.3992 8.98639 49.2849 9.69269C48.4418 14.9626 47.5857 20.2307 46.7165 25.4971C46.5244 26.6647 47.1944 27.775 48.4643 27.801C58.1613 27.9991 67.8064 28.8852 77.4801 29.4873C69.8294 34.6138 62.3242 39.9723 54.8164 45.2734C39.8892 55.8001 24.6347 66.1861 10.5124 77.7918C7.3831 80.3616 4.85625 83.1294 3.79409 85.8504C3.67167 85.9414 3.55858 86.0444 3.45649 86.1579C-2.98655 93.3799 0.0804671 98.3005 8.43486 101.71C26.2915 109.007 44.7377 115.166 63.054 121.238C61.4473 123.636 59.8407 126.033 58.234 128.429C58.1811 128.512 58.1351 128.599 58.0964 128.69L55.0372 133.256C54.1984 134.507 55.2969 136.412 56.7927 136.323C70.7955 135.453 84.7619 134.087 98.7205 132.784C100.323 132.635 101.146 131.189 100.468 129.724C100.232 129.203 99.9852 128.682 99.7437 128.161L101.915 127.957C103.512 127.806 104.338 126.367 103.66 124.905C98.4219 113.605 92.332 102.768 86.2603 91.9047C85.4813 90.5026 83.6634 90.7371 82.8324 91.9047L75.4311 102.291C65.8898 98.0138 56.4733 93.4685 47.0697 88.8867C45.1194 87.938 38.7231 85.694 38.1518 82.7958C52.5155 70.3796 69.1802 60.1213 84.4788 48.8909C91.0517 44.0693 97.6012 39.2112 104.042 34.2124C109.168 30.2353 116.559 25.901 118.753 19.4714C118.828 19.2598 118.866 19.0366 118.865 18.812C120.748 15.6845 120.6 12.8046 116.066 11.0219ZM45.0831 92.2983C55.019 97.1668 64.9913 101.973 75.0986 106.471C76.1608 106.945 77.1243 106.716 77.8073 105.76L84.3308 96.6377C89.3949 105.718 94.4044 114.814 98.8737 124.207C87.255 125.273 75.6414 126.37 64.0019 127.154L68.0064 121.176C68.0568 121.1 68.1019 121.021 68.1414 120.939L71.2006 116.365C71.9797 115.218 71.1617 113.758 69.9852 113.37C52.3779 107.535 34.903 101.295 17.5034 94.8655C12.6186 93.0567 3.76033 90.8831 9.05292 84.701C14.2468 78.6493 21.617 74.2395 27.9977 69.5456C48.8668 54.1921 69.8606 38.4945 91.9321 24.9029C93.6305 23.8603 92.8982 21.2801 90.9375 21.2124C78.5058 20.7849 66.108 19.5522 53.6712 19.4141C54.2607 15.2883 54.8528 11.16 55.4891 7.0369C65.1532 7.43306 74.7879 8.18365 84.3931 9.28871C89.8753 9.92203 95.3341 10.7169 100.785 11.5718C102.774 11.8845 119.185 13.4196 114.248 18.7964C108.394 25.1583 100.084 30.0971 93.1812 35.2289C84.9073 41.3953 76.5607 47.4471 68.1829 53.4884C60.9565 58.7009 53.7197 63.9082 46.4724 69.1103C42.9354 71.6567 33.3163 76.9943 34.0304 82.5717C34.729 88.0449 40.7254 90.1637 45.0831 92.2983Z" fill="#2D2D2D"/>
<path d="M108.48 34.8536C89.8337 46.6496 72.0653 60.296 54.4086 73.5228C54.3203 73.5879 54.4086 73.7339 54.4969 73.6739C63.7369 67.9819 72.4159 61.3593 81.217 55.0105C90.3764 48.401 99.5645 41.8254 108.594 35.0491C108.708 34.9657 108.607 34.7884 108.48 34.8536Z" fill="#2D2D2D"/>
<path d="M111.952 32.3047C111.03 32.5158 110.456 33.0866 109.786 33.699C109.708 33.7668 109.786 33.8867 109.882 33.8658C110.786 33.6521 111.544 33.282 112.1 32.4975C112.17 32.3985 112.053 32.2812 111.952 32.3047Z" fill="#2D2D2D"/>
<path d="M59.2468 0.370087C76.6801 1.5403 93.7317 3.33081 110.885 6.81018C110.916 6.81244 110.948 6.80366 110.974 6.78535C111 6.76703 111.018 6.74027 111.027 6.70963C111.035 6.67898 111.033 6.64631 111.021 6.61714C111.008 6.58797 110.986 6.5641 110.957 6.54955C102.146 3.70611 92.7215 2.60886 83.5543 1.56896C75.5738 0.661982 67.2896 -0.349244 59.2468 0.125097C59.2187 0.130939 59.1935 0.146308 59.1754 0.16862C59.1573 0.190932 59.1475 0.218816 59.1475 0.247584C59.1475 0.276352 59.1573 0.304252 59.1754 0.326564C59.1935 0.348876 59.2187 0.364245 59.2468 0.370087Z" fill="#2D2D2D"/>
<path d="M9.51268 75.0083C25.7904 61.7164 42.6472 49.1907 59.3742 36.4591C59.6053 36.2818 59.3742 35.8831 59.1405 36.0577C42.0863 48.1403 24.7672 60.6791 9.37245 74.8598C9.25819 74.9536 9.4088 75.0944 9.51268 75.0083Z" fill="#2D2D2D"/>
<path d="M53.422 122.291C40.1256 116.964 26.3773 112.648 12.9095 107.753C12.8946 107.748 12.8781 107.748 12.8634 107.755C12.8488 107.761 12.8371 107.773 12.8308 107.787C12.8245 107.802 12.824 107.819 12.8295 107.834C12.8349 107.849 12.8459 107.861 12.8602 107.868C25.9463 113.828 39.4846 118.732 53.3467 122.534C53.3787 122.544 53.4134 122.54 53.4431 122.525C53.4728 122.509 53.4951 122.482 53.5051 122.45C53.5151 122.418 53.5119 122.383 53.4964 122.353C53.4808 122.324 53.454 122.301 53.422 122.291V122.291Z" fill="#2D2D2D"/>
<path d="M94.9135 135.518C84.8711 137.256 74.9741 137.788 64.8408 138.466C64.8203 138.469 64.8017 138.48 64.7883 138.496C64.7749 138.512 64.7676 138.532 64.7676 138.553C64.7676 138.574 64.7749 138.594 64.7883 138.61C64.8017 138.626 64.8203 138.637 64.8408 138.64C74.691 139.704 85.4346 138.304 94.9654 135.711C94.9909 135.704 95.0126 135.687 95.0258 135.664C95.0389 135.641 95.0424 135.614 95.0356 135.588C95.0287 135.563 95.0119 135.541 94.989 135.528C94.9662 135.515 94.939 135.511 94.9135 135.518Z" fill="#2D2D2D"/>
<path d="M92.2021 93.6666C95.6119 102.504 99.3281 111.334 103.325 119.927C103.382 120.05 103.585 119.961 103.543 119.834C100.715 110.824 96.2949 102.158 92.3397 93.6093C92.293 93.5311 92.1735 93.5858 92.2021 93.6666Z" fill="#2D2D2D"/>
<path d="M7.8401 105.885C7.82756 105.885 7.81539 105.889 7.80546 105.897C7.79553 105.904 7.78841 105.915 7.78516 105.927C7.78191 105.939 7.78272 105.952 7.78749 105.964C7.79226 105.976 7.80071 105.985 7.81153 105.992C8.39325 106.289 8.97237 106.591 9.56708 106.865C10.0579 107.091 10.489 107.386 11.0343 107.417C11.0614 107.417 11.0879 107.409 11.1105 107.394C11.1331 107.379 11.1508 107.358 11.1613 107.333C11.1718 107.308 11.1748 107.28 11.1697 107.254C11.1647 107.227 11.1519 107.202 11.133 107.183C10.4085 106.349 8.90485 105.939 7.8401 105.885Z" fill="#2D2D2D"/>
</g>
<defs>
<clipPath id="clip0_302_101">
<rect width="120" height="139" fill="white"/>
</clipPath>
</defs>
</svg>
