<svg width="261" height="125" viewBox="0 0 261 125" fill="none" xmlns="http://www.w3.org/2000/svg">
<g clip-path="url(#clip0_304_65)">
<path d="M90.4179 53.8405C90.1 53.5393 89.6982 53.3425 89.266 53.2764C83.5754 50.633 77.5041 48.9092 71.277 48.1687L71.2125 48.1502C70.5703 48.0193 69.917 47.9512 69.2618 47.9468C67.0054 47.7294 64.7396 47.6266 62.4729 47.6385C44.0416 47.7742 16.8645 57.2127 13.5868 78.4294C13.5357 78.72 13.5357 79.0174 13.5868 79.308C13.4731 79.5922 13.4294 79.8997 13.4594 80.2045C13.4893 80.5093 13.5921 80.8023 13.7589 81.0588C31.3977 108.98 94.3561 113.733 110.634 82.0051C110.806 81.6971 110.901 81.3514 110.909 80.9983C110.917 80.6452 110.838 80.2955 110.68 79.9799C108.554 67.5483 100.595 59.0067 90.4179 53.8405ZM53.0084 70.8465C53.4307 70.2862 53.9512 69.8078 54.5444 69.4347C56.1172 68.4391 57.7822 68.6672 59.2966 69.6104C61.8125 71.1733 60.467 74.1633 58.5778 75.5504C56.3476 77.1903 53.2204 76.9036 52.52 73.8704C52.284 72.8371 52.4593 71.7521 53.0084 70.8465V70.8465ZM71.9712 65.9577C68.0976 68.7997 62.5713 67.9305 61.3855 62.792C60.9124 60.7421 61.4377 58.7447 62.5405 57.0647C63.2004 56.2423 63.9913 55.5351 64.8813 54.9717C67.517 53.2856 70.4752 53.6339 73.0249 55.2245C77.5375 58.0327 75.4486 63.4054 71.9712 65.9608V65.9577ZM17.8629 79.2124C21.3987 69.1481 28.6944 62.342 37.5845 58.1097C37.179 72.9365 46.5882 83.8484 62.2241 85.4359C78.0014 87.0357 91.5422 75.347 91.5392 60.2705C98.2697 64.8943 103.52 71.6202 106.438 80.4485C87.9635 107.553 37.3817 102.867 17.8629 79.2155V79.2124Z" fill="#2D2D2D"/>
<path d="M43.142 90.2878C39.1701 88.2996 34.9554 86.9617 31.0295 84.841C27.6044 82.9915 24.7107 79.7456 21.0643 78.4849C20.8524 78.4109 20.7172 78.6606 20.8001 78.8332C22.4405 82.2918 26.8794 84.6314 30.0373 86.5394C33.8956 88.8729 38.4082 90.9566 42.9792 90.8919C43.2864 90.8888 43.4431 90.4357 43.142 90.2878Z" fill="#2D2D2D"/>
<path d="M27.377 79.6686C29.5734 81.2684 32.1354 83.346 34.9431 83.4847C34.9898 83.4838 35.0355 83.4707 35.0756 83.4468C35.1158 83.4229 35.1491 83.3889 35.1723 83.3483C35.1955 83.3076 35.2078 83.2616 35.208 83.2148C35.2082 83.1679 35.1963 83.1218 35.1735 83.0809C33.8434 81.102 31.5671 80.1741 29.5949 78.9535C28.2955 78.1489 27.0637 77.2488 25.8165 76.3642C24.9625 75.7477 24.4311 75.0664 23.359 75.0356C23.3278 75.0364 23.2981 75.0495 23.2763 75.0719C23.2544 75.0944 23.2423 75.1245 23.2423 75.1558C23.2238 77.107 25.9763 78.6483 27.377 79.6686Z" fill="#2D2D2D"/>
<path d="M28.3135 76.3642C29.6713 77.3074 31.1059 78.2907 32.8169 78.1058C32.8833 78.1038 32.9477 78.0826 33.0023 78.0447C33.0569 78.0069 33.0995 77.954 33.1248 77.8924C33.1501 77.8308 33.1572 77.7631 33.1451 77.6976C33.1329 77.6321 33.1022 77.5715 33.0565 77.5232C32.0243 76.2902 30.4945 75.7477 29.1705 74.8938C27.8466 74.04 26.6086 73.0721 25.0972 72.4987C24.8515 72.4032 24.6334 72.7238 24.7655 72.9334C25.6686 74.3729 26.925 75.4024 28.3135 76.3642Z" fill="#2D2D2D"/>
<path d="M102.125 78.7839C99.2433 81.3824 96.9639 84.2029 93.7292 86.4901C90.4945 88.7773 86.9434 90.448 83.6657 92.6119C83.3155 92.8431 83.5305 93.4596 83.9729 93.3178C88.1476 91.9245 91.8708 89.7945 95.471 87.2576C98.2634 85.2879 101.685 82.489 102.536 79.0182C102.552 78.991 102.562 78.9612 102.565 78.9302C102.569 78.8993 102.567 78.8679 102.559 78.8378C102.55 78.8078 102.536 78.7797 102.517 78.7551C102.498 78.7305 102.474 78.7099 102.447 78.6945C102.42 78.6791 102.39 78.6692 102.36 78.6654C102.329 78.6616 102.297 78.6639 102.268 78.6722C102.238 78.6805 102.21 78.6946 102.185 78.7138C102.161 78.733 102.14 78.7568 102.125 78.7839V78.7839Z" fill="#2D2D2D"/>
<path d="M92.1993 84.1844C94.1592 83.645 95.7105 82.0267 97.0222 80.541C98.3339 79.0552 99.9435 77.5047 100.687 75.7076C100.791 75.4487 100.453 75.2637 100.251 75.3747C98.7148 76.1977 97.5905 77.8992 96.4078 79.1631C94.964 80.7043 93.2407 82.076 91.9413 83.7406C91.902 83.7827 91.8772 83.8364 91.8708 83.8938C91.8644 83.9512 91.8766 84.0091 91.9056 84.0589C91.9346 84.1088 91.9788 84.1479 92.0317 84.1705C92.0846 84.1931 92.1434 84.198 92.1993 84.1844V84.1844Z" fill="#2D2D2D"/>
<path d="M94.8781 76.8943C95.9134 77.0546 96.4971 76.2779 97.1729 75.6059C97.9961 74.7952 98.973 73.9721 99.5905 73.0012C99.6269 72.9274 99.6417 72.8448 99.6331 72.763C99.6246 72.6811 99.593 72.6034 99.5422 72.5388C99.4914 72.4742 99.4233 72.4254 99.3459 72.3981C99.2685 72.3709 99.185 72.3662 99.1051 72.3847C98.0883 72.6004 97.3234 73.3988 96.5524 74.0677C95.7813 74.7366 94.6385 75.4856 94.6416 76.5923C94.6442 76.6612 94.6685 76.7276 94.711 76.7819C94.7535 76.8361 94.812 76.8755 94.8781 76.8943V76.8943Z" fill="#2D2D2D"/>
<path d="M95.2841 71.6603C96.3838 71.4229 96.8907 70.2331 97.2501 69.2714C97.3115 69.1049 97.0903 69.0186 96.9767 69.1111C96.2271 69.7492 95.1335 70.2331 94.9031 71.2688C94.8855 71.3224 94.8829 71.3799 94.8956 71.4349C94.9083 71.4899 94.9358 71.5403 94.9751 71.5807C95.0144 71.6211 95.064 71.6498 95.1185 71.6639C95.1729 71.6779 95.2302 71.6767 95.2841 71.6603Z" fill="#2D2D2D"/>
<path d="M29.3023 72.8347C29.4146 72.8665 29.5334 72.8675 29.6463 72.8377C29.7592 72.8079 29.8621 72.7483 29.9443 72.6652C30.4542 72.0826 29.8429 71.5925 29.3299 71.3366C28.4729 70.9143 27.8954 70.1036 26.9216 69.9834C26.8079 69.9834 26.7403 70.0821 26.7311 70.1745C26.5591 71.4599 28.221 72.5296 29.3023 72.8347Z" fill="#2D2D2D"/>
<path d="M30.4175 69.5581C30.6356 69.6598 31.2008 69.9495 31.3851 69.6012C31.6524 69.0834 31.3851 68.6456 31.0103 68.2726C30.7858 68.0388 30.513 67.8572 30.211 67.7406C29.909 67.624 29.5852 67.5752 29.2624 67.5976C29.2272 67.5994 29.193 67.6101 29.1629 67.6285C29.1328 67.647 29.1078 67.6726 29.0901 67.7033C29.0724 67.7339 29.0626 67.7684 29.0616 67.8038C29.0606 67.8392 29.0684 67.8743 29.0843 67.9058C29.3669 68.5285 29.7631 69.2498 30.4175 69.5581Z" fill="#2D2D2D"/>
<path d="M121.546 65.0175C118.253 66.2043 114.695 67.724 112.023 70.0513C110.558 71.3336 112.1 74.1356 113.967 73.4081C117.067 72.2028 120.388 70.6863 123.097 68.7443C124.857 67.5021 123.865 64.1884 121.546 65.0175Z" fill="#2D2D2D"/>
<path d="M67.1796 41.7972C68.6634 37.3522 69.1549 31.4647 68.906 26.7855C68.7862 24.5076 65.4686 23.9034 64.8603 26.2337C64.3074 28.3452 64.1538 30.5245 63.9633 32.7069C63.7114 35.5397 63.1401 38.4219 63.1309 41.2608C63.1247 43.6559 66.4547 43.9642 67.1796 41.7972Z" fill="#2D2D2D"/>
<path d="M2.38047 62.5207C0.230143 61.6761 -0.891089 64.9528 0.872177 66.1087C3.49557 67.8319 6.05138 70.2732 9.1202 71.124C11.0371 71.6511 12.6068 69.1296 11.0954 67.7147C8.66556 65.4491 5.45236 63.7229 2.38047 62.5207Z" fill="#2D2D2D"/>
<path d="M93.7878 50.9707C95.8091 48.4215 97.729 45.5856 98.8779 42.5185C99.6121 40.5549 96.7276 38.9182 95.3729 40.4717C93.3454 42.8052 91.9723 45.7613 90.633 48.5293C89.7053 50.4559 92.2826 52.8695 93.7878 50.9707Z" fill="#2D2D2D"/>
<path d="M30.9065 48.2303C31.951 50.3418 35.6495 48.8098 34.728 46.6151C33.1582 42.8791 32.1691 38.6007 29.4074 35.5182C28.0988 34.0602 25.1959 35.586 25.9884 37.5156C27.4721 41.1375 29.1893 44.7317 30.9065 48.2303Z" fill="#2D2D2D"/>
<path d="M46.4904 41.9174C47.2215 43.9364 50.5115 43.7669 50.4071 41.3841C50.3027 39.0014 50.9908 35.7894 49.4855 33.7057C48.5056 32.3555 46.1955 32.3155 45.7348 34.1958C45.4276 35.4935 45.6334 36.7543 45.7102 38.0643C45.7744 39.3809 46.0375 40.6801 46.4904 41.9174Z" fill="#2D2D2D"/>
<path d="M14.9474 54.9594C15.4573 55.69 15.8689 56.5006 16.3359 57.2589C17.5462 59.2471 21.0973 57.9432 20.2095 55.6221C19.4139 53.5414 18.2036 49.8117 15.3313 50.1014C13.7401 50.2648 12.8462 51.7074 13.565 53.1839C13.9336 53.9545 14.5664 54.4138 14.9474 54.9594Z" fill="#2D2D2D"/>
<path d="M82.892 43.7669C83.9149 41.6092 85.2236 39.399 85.454 36.9854C85.6383 35.0743 83.1286 34.39 81.9244 35.5182C80.1519 37.1827 79.5713 39.8336 78.9385 42.0993C78.2842 44.4142 81.823 46.0294 82.892 43.7669Z" fill="#2D2D2D"/>
<path d="M108.837 53.5014C107.23 54.0254 106.026 55.4557 104.843 56.6209C103.433 58.0203 104.843 60.7792 106.846 60.0764C108.751 59.4075 110.686 58.0142 111.337 56.0198C111.823 54.5556 110.287 53.0329 108.837 53.5014Z" fill="#2D2D2D"/>
<path d="M109.719 93.025C95.9873 104.143 80.2562 108.647 62.7188 108.286C44.9018 107.92 31.6404 101.357 16.4284 93.2438C16.2472 93.1452 15.9891 93.3548 16.1212 93.5521C25.5028 106.921 47.7033 110.962 62.7157 111.662C79.353 112.442 100.693 108.539 110.622 93.7308C111.015 93.1421 110.192 92.6458 109.719 93.025Z" fill="#2D2D2D"/>
</g>
<g clip-path="url(#clip1_304_65)">
<path d="M208.682 38.9036C208.279 38.731 207.834 38.6852 207.406 38.7726C201.152 38.2599 194.859 38.7416 188.76 40.1998L188.693 40.2048C188.046 40.304 187.409 40.4659 186.793 40.6884C184.6 41.2646 182.439 41.9515 180.316 42.7464C163.068 49.2465 140.831 67.4996 145.091 88.5411C145.144 88.8314 145.247 89.1104 145.395 89.3654C145.387 89.6714 145.452 89.9751 145.585 90.2507C145.719 90.5264 145.917 90.7658 146.162 90.9488C172.367 111.049 233.085 93.7406 237.389 58.3413C237.444 57.9927 237.413 57.6357 237.299 57.3016C237.184 56.9675 236.99 56.6665 236.732 56.425C230.439 45.4951 220.017 40.2324 208.682 38.9036ZM179.46 67.7955C179.662 67.1237 179.985 66.4948 180.413 65.9397C181.544 64.4617 183.185 64.1 184.932 64.4614C187.834 65.058 187.605 68.3288 186.312 70.2836C184.786 72.5934 181.753 73.4057 180.047 70.8018C179.468 69.9138 179.257 68.8351 179.46 67.7955ZM195.562 56.6516C192.91 60.6577 187.424 61.7529 184.535 57.3413C183.382 55.5814 183.185 53.5256 183.639 51.5679C183.973 50.568 184.471 49.631 185.111 48.7947C187.001 46.3012 189.898 45.6052 192.84 46.2161C198.045 47.2908 197.943 53.0544 195.563 56.6545L195.562 56.6516ZM149.374 87.7972C149.212 77.1312 153.705 68.2223 160.583 61.1772C165.329 75.2297 177.931 82.2154 193.151 78.2987C208.509 74.3447 217.173 58.6949 211.957 44.5494C219.871 46.5608 227.123 51.0568 232.914 58.3315C224.95 90.1517 175.868 103.244 149.375 87.8001L149.374 87.7972Z" fill="#2D2D2D"/>
<path d="M176.923 89.4492C172.509 88.957 168.092 89.1589 163.675 88.5264C159.821 87.9753 155.984 85.9301 152.126 86.0079C151.902 86.0118 151.861 86.2928 151.999 86.4261C154.734 89.1042 159.708 89.7647 163.331 90.4632C167.758 91.3186 172.713 91.7136 176.979 90.0724C177.267 89.9633 177.257 89.484 176.923 89.4492Z" fill="#2D2D2D"/>
<path d="M158.458 84.9359C161.072 85.6776 164.195 86.7412 166.877 85.9006C166.921 85.8836 166.959 85.8555 166.988 85.8192C167.018 85.7829 167.037 85.7395 167.045 85.6933C167.053 85.6472 167.048 85.5998 167.032 85.5557C167.016 85.5117 166.989 85.4725 166.954 85.4421C165.021 84.0451 162.565 83.9615 160.292 83.498C158.795 83.1924 157.328 82.7737 155.851 82.3748C154.837 82.0916 154.103 81.6362 153.086 81.9779C153.057 81.9895 153.034 82.012 153.021 82.0406C153.008 82.0692 153.007 82.1017 153.018 82.1311C153.676 83.9683 156.791 84.4628 158.458 84.9359Z" fill="#2D2D2D"/>
<path d="M158.195 81.5113C159.796 81.9269 161.482 82.3536 163.023 81.5884C163.085 81.5636 163.138 81.5215 163.176 81.467C163.214 81.4126 163.236 81.3483 163.238 81.2817C163.241 81.2152 163.224 81.1493 163.19 81.092C163.156 81.0347 163.106 80.9885 163.047 80.9589C161.652 80.1589 160.029 80.1787 158.491 79.8353C156.954 79.4919 155.457 79.0117 153.841 78.9963C153.577 78.9916 153.484 79.3679 153.68 79.5189C155.025 80.5574 156.56 81.089 158.195 81.5113Z" fill="#2D2D2D"/>
<path d="M228.291 58.2608C226.485 61.6954 225.322 65.13 223.077 68.3946C220.833 71.6591 218.079 74.4546 215.751 77.6184C215.502 77.9564 215.917 78.4605 216.283 78.1745C219.719 75.4237 222.476 72.1378 224.977 68.5125C226.916 65.6988 229.159 61.8893 228.758 58.3383C228.763 58.3076 228.762 58.2761 228.755 58.2458C228.747 58.2154 228.734 58.1867 228.716 58.1614C228.698 58.1361 228.675 58.1146 228.649 58.0981C228.622 58.0816 228.593 58.0705 228.562 58.0655C228.532 58.0604 228.5 58.0614 228.47 58.0684C228.44 58.0755 228.411 58.0885 228.386 58.1066C228.361 58.1248 228.339 58.1477 228.323 58.1742C228.307 58.2006 228.296 58.2301 228.291 58.2608Z" fill="#2D2D2D"/>
<path d="M220.845 66.76C222.497 65.5762 223.393 63.5214 224.11 61.6737C224.827 59.8261 225.802 57.8146 225.878 55.8714C225.886 55.5923 225.505 55.5356 225.354 55.7098C224.197 57.0131 223.73 58.9984 223.057 60.5932C222.236 62.5386 221.093 64.4216 220.449 66.4328C220.427 66.4859 220.422 66.5449 220.436 66.6009C220.45 66.6569 220.481 66.7071 220.526 66.7438C220.57 66.7806 220.625 66.802 220.683 66.8049C220.74 66.8078 220.797 66.7921 220.845 66.76Z" fill="#2D2D2D"/>
<path d="M220.838 58.9934C221.865 58.7859 222.144 57.8552 222.545 56.991C223.038 55.9456 223.67 54.8356 223.913 53.711C223.922 53.6292 223.907 53.5466 223.871 53.4728C223.835 53.3989 223.778 53.3369 223.708 53.2938C223.638 53.2508 223.557 53.2286 223.475 53.2297C223.393 53.2309 223.313 53.2554 223.245 53.3004C222.365 53.8544 221.924 54.868 221.431 55.7622C220.939 56.6565 220.126 57.7544 220.511 58.7917C220.538 58.8556 220.583 58.9094 220.642 58.9457C220.701 58.9819 220.769 58.9986 220.838 58.9934Z" fill="#2D2D2D"/>
<path d="M219.409 53.942C220.359 53.339 220.423 52.0473 220.428 51.0206C220.428 50.8432 220.19 50.8387 220.116 50.9647C219.633 51.8226 218.774 52.6548 218.916 53.7063C218.918 53.7627 218.936 53.8175 218.967 53.8648C218.997 53.912 219.041 53.9498 219.092 53.9741C219.142 53.9984 219.199 54.0082 219.255 54.0026C219.311 53.9969 219.364 53.976 219.409 53.942Z" fill="#2D2D2D"/>
<path d="M157.903 77.8576C158.02 77.8485 158.131 77.8084 158.227 77.7414C158.323 77.6744 158.399 77.5829 158.447 77.4765C158.724 76.7535 157.981 76.505 157.411 76.4423C156.461 76.3424 155.639 75.7814 154.683 76.0053C154.577 76.0446 154.548 76.1605 154.571 76.2505C154.854 77.5161 156.783 77.9451 157.903 77.8576Z" fill="#2D2D2D"/>
<path d="M157.816 74.3974C158.056 74.4175 158.687 74.4939 158.739 74.1033C158.811 73.525 158.409 73.2067 157.928 72.9863C157.637 72.8445 157.318 72.7685 156.994 72.7634C156.67 72.7584 156.35 72.8246 156.055 72.9573C156.022 72.9712 155.994 72.993 155.972 73.0207C155.95 73.0484 155.935 73.0811 155.929 73.116C155.923 73.1508 155.926 73.1866 155.937 73.2202C155.949 73.2537 155.968 73.2839 155.994 73.3081C156.474 73.7946 157.096 74.3344 157.816 74.3974Z" fill="#2D2D2D"/>
<path d="M241.754 38.6287C239.074 40.8809 236.262 43.5368 234.559 46.6446C233.627 48.3545 236.043 50.4504 237.544 49.1221C240.036 46.9195 242.627 44.3482 244.498 41.5892C245.72 39.815 243.644 37.0488 241.754 38.6287Z" fill="#2D2D2D"/>
<path d="M182.712 35.6382C182.568 30.9544 180.993 25.26 179.142 20.9555C178.242 18.8594 174.92 19.4396 175.155 21.8366C175.366 24.009 175.975 26.107 176.551 28.2207C177.294 30.9658 177.755 33.8678 178.728 36.5348C179.55 38.7843 182.781 37.9222 182.712 35.6382Z" fill="#2D2D2D"/>
<path d="M129.075 77.4883C126.765 77.4392 126.846 80.9015 128.901 81.3765C131.958 82.0863 135.2 83.4933 138.374 83.2305C140.355 83.0624 140.956 80.1536 139.048 79.3486C135.985 78.0629 132.373 77.5541 129.075 77.4883Z" fill="#2D2D2D"/>
<path d="M210.851 35.0457C211.867 31.9548 212.688 28.63 212.705 25.3548C212.715 23.2586 209.443 22.7201 208.709 24.6462C207.613 27.5368 207.347 30.7853 207.047 33.8457C206.843 35.9742 210.096 37.3478 210.851 35.0457Z" fill="#2D2D2D"/>
<path d="M150.901 54.2162C152.611 55.8364 155.551 53.1201 153.928 51.3793C151.163 48.4166 148.756 44.744 145.099 42.8065C143.367 41.8908 141.17 44.3263 142.581 45.8629C145.226 48.7484 148.08 51.5271 150.901 54.2162Z" fill="#2D2D2D"/>
<path d="M163.341 42.9045C164.725 44.5462 167.753 43.2496 166.831 41.0499C165.909 38.8502 165.445 35.5984 163.312 34.1636C161.925 33.2356 159.744 33.9967 159.962 35.9204C160.122 37.2443 160.751 38.3561 161.276 39.5588C161.792 40.772 162.488 41.9001 163.341 42.9045Z" fill="#2D2D2D"/>
<path d="M138.252 66.0481C138.984 66.5573 139.65 67.1756 140.35 67.7257C142.174 69.1728 145.055 66.7215 143.419 64.8505C141.953 63.1732 139.528 60.092 136.933 61.357C135.496 62.0604 135.156 63.7231 136.342 64.86C136.954 65.4557 137.706 65.6678 138.252 66.0481Z" fill="#2D2D2D"/>
<path d="M198.136 32.0536C198.35 29.6752 198.814 27.1489 198.195 24.8046C197.708 22.9476 195.116 23.1732 194.376 24.6482C193.289 26.8229 193.66 29.5111 193.85 31.8558C194.036 34.2542 197.915 34.5462 198.136 32.0536Z" fill="#2D2D2D"/>
<path d="M225.847 32.2169C224.521 33.2641 223.885 35.0225 223.178 36.5247C222.339 38.3254 224.616 40.4266 226.253 39.0746C227.808 37.7884 229.143 35.8119 229.064 33.7154C229.013 32.1737 227.046 31.2759 225.847 32.2169Z" fill="#2D2D2D"/>
<path d="M240.34 68.998C231.3 84.1785 218.096 93.8434 201.516 99.5688C184.671 105.385 169.958 103.812 152.879 101.459C152.675 101.429 152.505 101.715 152.698 101.855C166.123 111.155 188.352 107.271 202.68 102.737C218.561 97.7162 237.236 86.6758 241.432 69.3481C241.597 68.6597 240.653 68.4787 240.34 68.998Z" fill="#2D2D2D"/>
</g>
<defs>
<clipPath id="clip0_304_65">
<rect width="124" height="87" fill="white" transform="translate(0 24.7542)"/>
</clipPath>
<clipPath id="clip1_304_65">
<rect width="124" height="87" fill="white" transform="translate(113.783 42.8741) rotate(-20.2281)"/>
</clipPath>
</defs>
</svg>
