<svg width="43" height="43" viewBox="0 0 43 43" fill="none" xmlns="http://www.w3.org/2000/svg">
<circle cx="21.5" cy="21.5" r="21" stroke="white"/>
<path fill-rule="evenodd" clip-rule="evenodd" d="M16.465 11.066C17.638 11.012 18.012 11 21 11C23.988 11 24.362 11.013 25.534 11.066C26.706 11.119 27.506 11.306 28.206 11.577C28.939 11.854 29.604 12.287 30.154 12.847C30.714 13.396 31.146 14.06 31.422 14.794C31.694 15.494 31.88 16.294 31.934 17.464C31.988 18.639 32 19.013 32 22C32 24.988 31.987 25.362 31.934 26.535C31.881 27.705 31.694 28.505 31.422 29.205C31.146 29.9391 30.7133 30.6042 30.154 31.154C29.604 31.714 28.939 32.146 28.206 32.422C27.506 32.694 26.706 32.88 25.536 32.934C24.362 32.988 23.988 33 21 33C18.012 33 17.638 32.987 16.465 32.934C15.295 32.881 14.495 32.694 13.795 32.422C13.0609 32.146 12.3958 31.7133 11.846 31.154C11.2864 30.6047 10.8533 29.9399 10.577 29.206C10.306 28.506 10.12 27.706 10.066 26.536C10.012 25.361 10 24.987 10 22C10 19.012 10.013 18.638 10.066 17.466C10.119 16.294 10.306 15.494 10.577 14.794C10.8537 14.0601 11.2871 13.3953 11.847 12.846C12.396 12.2865 13.0605 11.8534 13.794 11.577C14.494 11.306 15.294 11.12 16.464 11.066H16.465ZM25.445 13.046C24.285 12.993 23.937 12.982 21 12.982C18.063 12.982 17.715 12.993 16.555 13.046C15.482 13.095 14.9 13.274 14.512 13.425C13.999 13.625 13.632 13.862 13.247 14.247C12.882 14.6021 12.6012 15.0343 12.425 15.512C12.274 15.9 12.095 16.482 12.046 17.555C11.993 18.715 11.982 19.063 11.982 22C11.982 24.937 11.993 25.285 12.046 26.445C12.095 27.518 12.274 28.1 12.425 28.488C12.601 28.965 12.882 29.398 13.247 29.753C13.602 30.118 14.035 30.399 14.512 30.575C14.9 30.726 15.482 30.905 16.555 30.954C17.715 31.007 18.062 31.018 21 31.018C23.938 31.018 24.285 31.007 25.445 30.954C26.518 30.905 27.1 30.726 27.488 30.575C28.001 30.375 28.368 30.138 28.753 29.753C29.118 29.398 29.399 28.965 29.575 28.488C29.726 28.1 29.905 27.518 29.954 26.445C30.007 25.285 30.018 24.937 30.018 22C30.018 19.063 30.007 18.715 29.954 17.555C29.905 16.482 29.726 15.9 29.575 15.512C29.375 14.999 29.138 14.632 28.753 14.247C28.3979 13.8821 27.9657 13.6012 27.488 13.425C27.1 13.274 26.518 13.095 25.445 13.046ZM19.595 25.391C20.3797 25.7176 21.2534 25.7617 22.0669 25.5157C22.8805 25.2697 23.5834 24.7489 24.0556 24.0422C24.5278 23.3356 24.7401 22.4869 24.656 21.6411C24.572 20.7953 24.197 20.005 23.595 19.405C23.2112 19.0215 22.7472 18.7278 22.2363 18.5451C21.7255 18.3625 21.1804 18.2954 20.6405 18.3486C20.1006 18.4019 19.5792 18.5742 19.1138 18.8531C18.6485 19.1321 18.2507 19.5107 17.9493 19.9619C17.6479 20.413 17.4502 20.9253 17.3705 21.462C17.2908 21.9986 17.3312 22.5463 17.4885 23.0655C17.6459 23.5847 17.9165 24.0626 18.2807 24.4647C18.645 24.8668 19.0938 25.1832 19.595 25.391ZM17.002 18.002C17.527 17.477 18.1503 17.0605 18.8363 16.7764C19.5223 16.4922 20.2575 16.346 21 16.346C21.7425 16.346 22.4777 16.4922 23.1637 16.7764C23.8497 17.0605 24.473 17.477 24.998 18.002C25.523 18.527 25.9395 19.1503 26.2236 19.8363C26.5078 20.5223 26.654 21.2575 26.654 22C26.654 22.7425 26.5078 23.4777 26.2236 24.1637C25.9395 24.8497 25.523 25.473 24.998 25.998C23.9377 27.0583 22.4995 27.654 21 27.654C19.5005 27.654 18.0623 27.0583 17.002 25.998C15.9417 24.9377 15.346 23.4995 15.346 22C15.346 20.5005 15.9417 19.0623 17.002 18.002ZM27.908 17.188C28.0381 17.0653 28.1423 16.9177 28.2143 16.754C28.2863 16.5903 28.3248 16.4138 28.3274 16.2349C28.33 16.0561 28.2967 15.8785 28.2295 15.7128C28.1622 15.5471 28.0624 15.3965 27.936 15.27C27.8095 15.1436 27.6589 15.0438 27.4932 14.9765C27.3275 14.9093 27.1499 14.876 26.9711 14.8786C26.7922 14.8812 26.6157 14.9197 26.452 14.9917C26.2883 15.0637 26.1407 15.1679 26.018 15.298C25.7793 15.551 25.6486 15.8871 25.6537 16.2349C25.6588 16.5827 25.7992 16.9149 26.0452 17.1608C26.2911 17.4068 26.6233 17.5472 26.9711 17.5523C27.3189 17.5574 27.655 17.4267 27.908 17.188Z" fill="white"/>
</svg>
