<svg width="43" height="43" viewBox="0 0 43 43" fill="none" xmlns="http://www.w3.org/2000/svg">
<circle cx="21.5" cy="21.5" r="21" stroke="white"/>
<path fill-rule="evenodd" clip-rule="evenodd" d="M19.429 16.969H23.143V18.819C23.678 17.755 25.05 16.799 27.111 16.799C31.062 16.799 32 18.917 32 22.803V30H28V23.688C28 21.475 27.465 20.227 26.103 20.227C24.214 20.227 23.429 21.572 23.429 23.687V30H19.429V16.969V16.969ZM12.57 29.83H16.57V16.799H12.57V29.83V29.83ZM17.143 12.55C17.1431 12.8853 17.0767 13.2172 16.9474 13.5266C16.8181 13.8359 16.6287 14.1165 16.39 14.352C15.9064 14.8326 15.2518 15.1017 14.57 15.1C13.8894 15.0995 13.2363 14.8312 12.752 14.353C12.5142 14.1167 12.3254 13.8358 12.1963 13.5264C12.0673 13.217 12.0006 12.8852 12 12.55C12 11.873 12.27 11.225 12.753 10.747C13.2369 10.2682 13.8902 9.9997 14.571 10C15.253 10 15.907 10.269 16.39 10.747C16.872 11.225 17.143 11.873 17.143 12.55Z" fill="white"/>
</svg>
