<svg width="28" height="28" viewBox="0 0 28 28" fill="none" xmlns="http://www.w3.org/2000/svg">
<path d="M10.1992 10.1289C8.94718 11.1927 8.48838 13.1328 9.56943 14.6893C10.5811 16.1458 11.8554 17.4198 13.3115 18.431C14.8681 19.5119 16.8081 19.0529 17.8718 17.8009L17.8837 17.8064C19.2423 18.4357 20.6855 18.8672 22.1667 19.087V22.1666L22.1654 22.1666L22.1621 22.1666C12.8584 22.1798 5.82339 15.063 5.83335 5.83752V5.83333H8.9126L8.9128 5.8347C9.13266 7.31576 9.56387 8.75763 10.1933 10.1163L10.1992 10.1289ZM22.1654 24.5H23.3333C23.9777 24.5 24.5 23.9776 24.5 23.3333V18.0807C24.5 17.5025 24.0765 17.0115 23.5046 16.9266L22.5081 16.7788C21.2477 16.5917 20.0206 16.2247 18.8644 15.6892L17.9861 15.2823C17.4771 15.0465 16.8724 15.2063 16.5463 15.6628L16.1487 16.2195C15.8002 16.7074 15.1349 16.8564 14.6424 16.5144C13.4147 15.6619 12.3387 14.5862 11.4859 13.3582C11.1438 12.8657 11.2928 12.2003 11.7808 11.8518L12.3372 11.4544C12.7938 11.1284 12.9536 10.5236 12.7178 10.0146L12.3105 9.13538C11.7749 7.9793 11.4079 6.75237 11.2208 5.49207L11.0729 4.49535C10.988 3.92345 10.497 3.5 9.91886 3.5H4.66668C4.02235 3.5 3.50001 4.02233 3.50001 4.66667V5.835C3.48867 16.3425 11.5619 24.515 22.1654 24.5Z" fill="white"/>
</svg>
