<svg width="305" height="161" viewBox="0 0 305 161" fill="none" xmlns="http://www.w3.org/2000/svg">
<g filter="url(#filter0_d_53_50)">
<rect x="44" y="38" width="217" height="73" rx="36.5" fill="white"/>
</g>
<path d="M83 96.5C70.5792 96.4864 60.5136 86.4208 60.5 74V73.55C60.7473 61.1852 70.9278 51.3379 83.294 51.502C95.6602 51.6661 105.576 61.78 105.495 74.147C105.414 86.514 95.3673 96.4975 83 96.5ZM72.6725 73.0775L69.5 76.25L78.5 85.25L96.5 67.25L93.3275 64.055L78.5 78.8825L72.6725 73.0775Z" fill="#73FF50"/>
<path d="M125.19 86L117.035 67.625H119.625L127.115 84.67H125.89L133.485 67.625H135.935L127.745 86H125.19ZM146.727 86.175C144.814 86.175 143.134 85.7783 141.687 84.985C140.24 84.1683 139.109 83.06 138.292 81.66C137.475 80.2367 137.067 78.615 137.067 76.795C137.067 74.975 137.452 73.365 138.222 71.965C139.015 70.565 140.089 69.4683 141.442 68.675C142.819 67.8583 144.359 67.45 146.062 67.45C147.789 67.45 149.317 67.8467 150.647 68.64C152 69.41 153.062 70.5067 153.832 71.93C154.602 73.33 154.987 74.9517 154.987 76.795C154.987 76.9117 154.975 77.04 154.952 77.18C154.952 77.2967 154.952 77.425 154.952 77.565H138.957V75.71H153.622L152.642 76.445C152.642 75.115 152.35 73.9367 151.767 72.91C151.207 71.86 150.437 71.0433 149.457 70.46C148.477 69.8767 147.345 69.585 146.062 69.585C144.802 69.585 143.67 69.8767 142.667 70.46C141.664 71.0433 140.882 71.86 140.322 72.91C139.762 73.96 139.482 75.1617 139.482 76.515V76.9C139.482 78.3 139.785 79.5367 140.392 80.61C141.022 81.66 141.885 82.4883 142.982 83.095C144.102 83.6783 145.374 83.97 146.797 83.97C147.917 83.97 148.955 83.7717 149.912 83.375C150.892 82.9783 151.732 82.3717 152.432 81.555L153.832 83.165C153.015 84.145 151.989 84.8917 150.752 85.405C149.539 85.9183 148.197 86.175 146.727 86.175ZM160.045 86V67.625H162.425V72.63L162.18 71.755C162.693 70.355 163.557 69.2933 164.77 68.57C165.983 67.8233 167.488 67.45 169.285 67.45V69.865C169.192 69.865 169.098 69.865 169.005 69.865C168.912 69.8417 168.818 69.83 168.725 69.83C166.788 69.83 165.272 70.425 164.175 71.615C163.078 72.7817 162.53 74.45 162.53 76.62V86H160.045ZM173.819 86V67.625H176.304V86H173.819ZM175.079 63.565C174.566 63.565 174.134 63.39 173.784 63.04C173.434 62.69 173.259 62.27 173.259 61.78C173.259 61.29 173.434 60.8817 173.784 60.555C174.134 60.205 174.566 60.03 175.079 60.03C175.593 60.03 176.024 60.1933 176.374 60.52C176.724 60.8467 176.899 61.255 176.899 61.745C176.899 62.2583 176.724 62.69 176.374 63.04C176.048 63.39 175.616 63.565 175.079 63.565ZM183.639 86V65.315C183.639 63.6817 184.117 62.3633 185.074 61.36C186.031 60.3567 187.407 59.855 189.204 59.855C189.904 59.855 190.581 59.9483 191.234 60.135C191.887 60.3217 192.436 60.6133 192.879 61.01L192.039 62.865C191.689 62.5617 191.281 62.34 190.814 62.2C190.347 62.0367 189.846 61.955 189.309 61.955C188.259 61.955 187.454 62.2467 186.894 62.83C186.334 63.4133 186.054 64.2767 186.054 65.42V68.22L186.124 69.375V86H183.639ZM180.349 69.69V67.625H191.724V69.69H180.349ZM195.084 86V67.625H197.569V86H195.084ZM196.344 63.565C195.831 63.565 195.399 63.39 195.049 63.04C194.699 62.69 194.524 62.27 194.524 61.78C194.524 61.29 194.699 60.8817 195.049 60.555C195.399 60.205 195.831 60.03 196.344 60.03C196.857 60.03 197.289 60.1933 197.639 60.52C197.989 60.8467 198.164 61.255 198.164 61.745C198.164 62.2583 197.989 62.69 197.639 63.04C197.312 63.39 196.881 63.565 196.344 63.565ZM212.352 86.175C210.439 86.175 208.759 85.7783 207.312 84.985C205.865 84.1683 204.734 83.06 203.917 81.66C203.1 80.2367 202.692 78.615 202.692 76.795C202.692 74.975 203.077 73.365 203.847 71.965C204.64 70.565 205.714 69.4683 207.067 68.675C208.444 67.8583 209.984 67.45 211.687 67.45C213.414 67.45 214.942 67.8467 216.272 68.64C217.625 69.41 218.687 70.5067 219.457 71.93C220.227 73.33 220.612 74.9517 220.612 76.795C220.612 76.9117 220.6 77.04 220.577 77.18C220.577 77.2967 220.577 77.425 220.577 77.565H204.582V75.71H219.247L218.267 76.445C218.267 75.115 217.975 73.9367 217.392 72.91C216.832 71.86 216.062 71.0433 215.082 70.46C214.102 69.8767 212.97 69.585 211.687 69.585C210.427 69.585 209.295 69.8767 208.292 70.46C207.289 71.0433 206.507 71.86 205.947 72.91C205.387 73.96 205.107 75.1617 205.107 76.515V76.9C205.107 78.3 205.41 79.5367 206.017 80.61C206.647 81.66 207.51 82.4883 208.607 83.095C209.727 83.6783 210.999 83.97 212.422 83.97C213.542 83.97 214.58 83.7717 215.537 83.375C216.517 82.9783 217.357 82.3717 218.057 81.555L219.457 83.165C218.64 84.145 217.614 84.8917 216.377 85.405C215.164 85.9183 213.822 86.175 212.352 86.175ZM232.985 86.175C231.235 86.175 229.66 85.7783 228.26 84.985C226.883 84.1917 225.798 83.095 225.005 81.695C224.212 80.2717 223.815 78.6383 223.815 76.795C223.815 74.9283 224.212 73.295 225.005 71.895C225.798 70.495 226.883 69.41 228.26 68.64C229.66 67.8467 231.235 67.45 232.985 67.45C234.595 67.45 236.03 67.8117 237.29 68.535C238.573 69.2583 239.588 70.32 240.335 71.72C241.105 73.0967 241.49 74.7883 241.49 76.795C241.49 78.7783 241.117 80.47 240.37 81.87C239.623 83.27 238.608 84.3433 237.325 85.09C236.065 85.8133 234.618 86.175 232.985 86.175ZM233.16 83.97C234.467 83.97 235.633 83.6783 236.66 83.095C237.71 82.4883 238.527 81.6483 239.11 80.575C239.717 79.4783 240.02 78.2183 240.02 76.795C240.02 75.3483 239.717 74.0883 239.11 73.015C238.527 71.9417 237.71 71.1133 236.66 70.53C235.633 69.9233 234.467 69.62 233.16 69.62C231.877 69.62 230.722 69.9233 229.695 70.53C228.668 71.1133 227.852 71.9417 227.245 73.015C226.638 74.0883 226.335 75.3483 226.335 76.795C226.335 78.2183 226.638 79.4783 227.245 80.575C227.852 81.6483 228.668 82.4883 229.695 83.095C230.722 83.6783 231.877 83.97 233.16 83.97ZM240.09 86V80.47L240.335 76.76L239.985 73.05V60.03H242.47V86H240.09Z" fill="#73FF50"/>
<defs>
<filter id="filter0_d_53_50" x="0" y="0" width="305" height="161" filterUnits="userSpaceOnUse" color-interpolation-filters="sRGB">
<feFlood flood-opacity="0" result="BackgroundImageFix"/>
<feColorMatrix in="SourceAlpha" type="matrix" values="0 0 0 0 0 0 0 0 0 0 0 0 0 0 0 0 0 0 127 0" result="hardAlpha"/>
<feOffset dy="6"/>
<feGaussianBlur stdDeviation="22"/>
<feComposite in2="hardAlpha" operator="out"/>
<feColorMatrix type="matrix" values="0 0 0 0 0 0 0 0 0 0 0 0 0 0 0 0 0 0 0.25 0"/>
<feBlend mode="normal" in2="BackgroundImageFix" result="effect1_dropShadow_53_50"/>
<feBlend mode="normal" in="SourceGraphic" in2="effect1_dropShadow_53_50" result="shape"/>
</filter>
</defs>
</svg>
