<svg width="63" height="63" viewBox="0 0 63 63" fill="none" xmlns="http://www.w3.org/2000/svg">
<path d="M31.5 57.75C17.0091 57.7341 5.26591 45.9909 5.25 31.5V30.975C5.53857 16.5494 17.4158 5.06087 31.843 5.2523C46.2702 5.44372 57.8385 17.2433 57.7442 31.6715C57.6499 46.0997 45.9285 57.7471 31.5 57.75ZM31.5 10.5C19.902 10.5 10.5 19.902 10.5 31.5C10.5 43.098 19.902 52.5 31.5 52.5C43.098 52.5 52.5 43.098 52.5 31.5C52.487 19.9074 43.0926 10.513 31.5 10.5ZM27.6938 44.625L23.982 40.9106L33.2614 31.6312L23.982 22.3519L27.6938 18.6375L40.6875 31.6312L27.6964 44.625H27.6938Z" fill="#1E5AFF"/>
</svg>
