<svg width="43" height="43" viewBox="0 0 43 43" fill="none" xmlns="http://www.w3.org/2000/svg">
<circle cx="21.5" cy="21.5" r="21" stroke="white"/>
<path d="M33.643 13.9371C32.808 14.3071 31.911 14.5571 30.968 14.6701C31.941 14.0879 32.669 13.1715 33.016 12.0921C32.1019 12.6351 31.1014 13.0173 30.058 13.2221C29.3564 12.4729 28.4271 11.9764 27.4143 11.8096C26.4016 11.6427 25.3621 11.8149 24.4572 12.2993C23.5524 12.7838 22.8328 13.5534 22.4102 14.4888C21.9875 15.4241 21.8855 16.4728 22.12 17.4721C20.2677 17.3791 18.4556 16.8976 16.8014 16.059C15.1472 15.2203 13.6879 14.0432 12.518 12.6041C12.118 13.2941 11.888 14.0941 11.888 14.9461C11.8876 15.7131 12.0764 16.4683 12.4379 17.1448C12.7993 17.8213 13.3222 18.3981 13.96 18.8241C13.2203 18.8005 12.4969 18.6007 11.85 18.2411V18.3011C11.8499 19.3768 12.222 20.4195 12.9032 21.2521C13.5843 22.0847 14.5326 22.656 15.587 22.8691C14.9008 23.0548 14.1813 23.0821 13.483 22.9491C13.7805 23.8747 14.36 24.6841 15.1404 25.264C15.9208 25.8439 16.8629 26.1653 17.835 26.1831C16.1848 27.4785 14.1469 28.1812 12.049 28.1781C11.6774 28.1782 11.3061 28.1565 10.937 28.1131C13.0665 29.4823 15.5454 30.2089 18.077 30.2061C26.647 30.2061 31.332 23.1081 31.332 16.9521C31.332 16.7521 31.327 16.5501 31.318 16.3501C32.2293 15.6911 33.0159 14.875 33.641 13.9401L33.643 13.9371Z" fill="white"/>
</svg>
