<svg width="38" height="102" viewBox="0 0 38 102" fill="none" xmlns="http://www.w3.org/2000/svg">
<path d="M21.5 2.68604C21.5 1.30532 20.3807 0.186035 19 0.186035C17.6193 0.186035 16.5 1.30532 16.5 2.68604H21.5ZM17.2322 101.082C18.2085 102.058 19.7915 102.058 20.7678 101.082L36.6777 85.172C37.654 84.1957 37.654 82.6128 36.6777 81.6365C35.7014 80.6602 34.1184 80.6602 33.1421 81.6365L19 95.7786L4.85786 81.6365C3.88155 80.6602 2.29864 80.6602 1.32233 81.6365C0.34602 82.6128 0.34602 84.1957 1.32233 85.172L17.2322 101.082ZM16.5 2.68604V99.3142H21.5V2.68604H16.5Z" fill="#684EED"/>
</svg>
