<svg width="43" height="43" viewBox="0 0 43 43" fill="none" xmlns="http://www.w3.org/2000/svg">
<circle cx="21.5" cy="21.5" r="21" stroke="white"/>
<path d="M32.7998 10H9.86648H9.86686C8.31067 10 6.81848 10.6179 5.71838 11.7184C4.6179 12.8185 4 14.3107 4 15.8669V28.1335V28.1331C4 29.6893 4.61793 31.1815 5.71838 32.2816C6.81848 33.3821 8.31067 34 9.86686 34H32.8002H32.7998C34.356 34 35.8482 33.3821 36.9483 32.2816C38.0488 31.1815 38.6667 29.6893 38.6667 28.1331V15.8665V15.8669C38.6667 14.3107 38.0487 12.8185 36.9483 11.7184C35.8482 10.6179 34.356 10 32.7998 10ZM28.1228 22.2343L17.7228 27.5676C17.6402 27.61 17.5416 27.607 17.4623 27.5591C17.3827 27.5114 17.334 27.4255 17.3333 27.3329V16.6662C17.334 16.5736 17.3827 16.4876 17.4623 16.44C17.5416 16.392 17.6402 16.389 17.7228 16.4315L28.1228 21.7648C28.2117 21.8105 28.2678 21.9021 28.2678 22.0021C28.2678 22.1022 28.2117 22.1937 28.1228 22.2395V22.2343Z" fill="white"/>
</svg>
